{
 "asset": {
  "version": "2.0",
  "generator": "lidarworld",
  "copyright": "src0: unknown -- check the tile's provider"
 },
 "scene": 0,
 "scenes": [
  {
   "nodes": [
    0
   ]
  }
 ],
 "nodes": [
  {
   "name": "lodo",
   "mesh": 0,
   "matrix": [
    1.0,
    0.0,
    0.0,
    0.0,
    0.0,
    0.0,
    -1.0,
    0.0,
    0.0,
    1.0,
    0.0,
    0.0,
    200.82462866946685,
    1619.2148838942394,
    -128.57022803371882,
    1.0
   ],
   "extras": {
    "geoOrigin": [
     200.82462866946685,
     128.57022803371882,
     1619.2148838942394
    ],
    "crs": "COMPD_CS[\"NAD83(2011) / UTM zone 13N + NAVD88 height - Geoid18 (metres)\",PROJCS[\"NAD83(2011) / UTM zone 13N\",GEOGCS[\"NAD83(2011)\",DATUM[\"NAD83 (National_Spatial_Reference_System_2011)\",SPHEROID[\"GRS 1980\",6378137,298.257222101,AUTHORITY[\"EPSG\",\"7019\"]],AUTHORITY[\"EPSG\",\"1116\"]],PRIMEM[\"Greenwich\",0,AUTHORITY[\"EPSG\",\"8901\"]],UNIT[\"Degree\",0.0174532925199433,AUTHORITY[\"EPSG\",\"9122\"]],AUTHORITY[\"EPSG\",\"6318\"]],PROJECTION[\"Transverse_Mercator\"],PARAMETER[\"Latitude_Of_Origin\",0],PARAMETER[\"Central_Meridian\",-105],PARAMETER[\"scale_factor\",0.9996],PARAMETER[\"False_Easting\",500000],PARAMETER[\"False_Northing\",0],UNIT[\"metre\",1,AUTHORITY[\"EPSG\",\"9001\"]],AXIS[\"X\",EAST],AXIS[\"Y\",NORTH],AUTHORITY[\"EPSG\",\"6342\"]],VERT_CS[\"NAVD88 height - Geoid18 (metres)\",VERT_DATUM[\"North American Vertical Datum 1988\",2005,AUTHORITY[\"EPSG\",\"5103\"]],UNIT[\"metre\",1,AUTHORITY[\"EPSG\",\"9001\"]],AXIS[\"Up\",UP],AUTHORITY[\"EPSG\",\"5703\"]]]"
   }
  }
 ],
 "meshes": [
  {
   "name": "lodo",
   "primitives": [
    {
     "attributes": {
      "POSITION": 0,
      "NORMAL": 1,
      "TEXCOORD_0": 2
     },
     "indices": 3,
     "material": 0
    },
    {
     "attributes": {
      "POSITION": 0,
      "NORMAL": 1,
      "TEXCOORD_0": 2
     },
     "indices": 4,
     "material": 1
    },
    {
     "attributes": {
      "POSITION": 0,
      "NORMAL": 1,
      "TEXCOORD_0": 2
     },
     "indices": 5,
     "material": 2
    },
    {
     "attributes": {
      "POSITION": 0,
      "NORMAL": 1,
      "TEXCOORD_0": 2
     },
     "indices": 6,
     "material": 3
    },
    {
     "attributes": {
      "POSITION": 0,
      "NORMAL": 1,
      "TEXCOORD_0": 2
     },
     "indices": 7,
     "material": 4
    },
    {
     "attributes": {
      "POSITION": 0,
      "NORMAL": 1,
      "TEXCOORD_0": 2
     },
     "indices": 8,
     "material": 5
    },
    {
     "attributes": {
      "POSITION": 0,
      "NORMAL": 1,
      "TEXCOORD_0": 2
     },
     "indices": 9,
     "material": 6
    },
    {
     "attributes": {
      "POSITION": 0,
      "NORMAL": 1,
      "TEXCOORD_0": 2
     },
     "indices": 10,
     "material": 7
    },
    {
     "attributes": {
      "POSITION": 0,
      "NORMAL": 1,
      "TEXCOORD_0": 2
     },
     "indices": 11,
     "material": 8
    },
    {
     "attributes": {
      "POSITION": 0,
      "NORMAL": 1,
      "TEXCOORD_0": 2
     },
     "indices": 12,
     "material": 9
    }
   ]
  }
 ],
 "buffers": [
  {
   "uri": "lodo.bin",
   "byteLength": 17163992
  }
 ],
 "bufferViews": [
  {
   "buffer": 0,
   "byteOffset": 0,
   "byteLength": 5420208,
   "target": 34962
  },
  {
   "buffer": 0,
   "byteOffset": 5420208,
   "byteLength": 5420208,
   "target": 34962
  },
  {
   "buffer": 0,
   "byteOffset": 10840416,
   "byteLength": 3613472,
   "target": 34962
  },
  {
   "buffer": 0,
   "byteOffset": 14453888,
   "byteLength": 220512,
   "target": 34963
  },
  {
   "buffer": 0,
   "byteOffset": 14674400,
   "byteLength": 77544,
   "target": 34963
  },
  {
   "buffer": 0,
   "byteOffset": 14751944,
   "byteLength": 79128,
   "target": 34963
  },
  {
   "buffer": 0,
   "byteOffset": 14831072,
   "byteLength": 72,
   "target": 34963
  },
  {
   "buffer": 0,
   "byteOffset": 14831144,
   "byteLength": 12648,
   "target": 34963
  },
  {
   "buffer": 0,
   "byteOffset": 14843792,
   "byteLength": 448728,
   "target": 34963
  },
  {
   "buffer": 0,
   "byteOffset": 15292520,
   "byteLength": 94440,
   "target": 34963
  },
  {
   "buffer": 0,
   "byteOffset": 15386960,
   "byteLength": 356064,
   "target": 34963
  },
  {
   "buffer": 0,
   "byteOffset": 15743024,
   "byteLength": 1339728,
   "target": 34963
  },
  {
   "buffer": 0,
   "byteOffset": 17082752,
   "byteLength": 81240,
   "target": 34963
  }
 ],
 "accessors": [
  {
   "bufferView": 0,
   "componentType": 5126,
   "count": 451684,
   "type": "VEC3",
   "min": [
    -244.05950927734375,
    -263.2602233886719,
    -38.688262939453125
   ],
   "max": [
    244.05950927734375,
    263.2602233886719,
    38.688262939453125
   ]
  },
  {
   "bufferView": 1,
   "componentType": 5126,
   "count": 451684,
   "type": "VEC3"
  },
  {
   "bufferView": 2,
   "componentType": 5126,
   "count": 451684,
   "type": "VEC2"
  },
  {
   "bufferView": 3,
   "componentType": 5125,
   "count": 55128,
   "type": "SCALAR"
  },
  {
   "bufferView": 4,
   "componentType": 5125,
   "count": 19386,
   "type": "SCALAR"
  },
  {
   "bufferView": 5,
   "componentType": 5125,
   "count": 19782,
   "type": "SCALAR"
  },
  {
   "bufferView": 6,
   "componentType": 5125,
   "count": 18,
   "type": "SCALAR"
  },
  {
   "bufferView": 7,
   "componentType": 5125,
   "count": 3162,
   "type": "SCALAR"
  },
  {
   "bufferView": 8,
   "componentType": 5125,
   "count": 112182,
   "type": "SCALAR"
  },
  {
   "bufferView": 9,
   "componentType": 5125,
   "count": 23610,
   "type": "SCALAR"
  },
  {
   "bufferView": 10,
   "componentType": 5125,
   "count": 89016,
   "type": "SCALAR"
  },
  {
   "bufferView": 11,
   "componentType": 5125,
   "count": 334932,
   "type": "SCALAR"
  },
  {
   "bufferView": 12,
   "componentType": 5125,
   "count": 20310,
   "type": "SCALAR"
  }
 ],
 "materials": [
  {
   "name": "meadow",
   "pbrMetallicRoughness": {
    "baseColorFactor": [
     1,
     1,
     1,
     1.0
    ],
    "metallicFactor": 1.0,
    "roughnessFactor": 1.0,
    "baseColorTexture": {
     "index": 0
    },
    "metallicRoughnessTexture": {
     "index": 2
    }
   },
   "doubleSided": true,
   "extras": {
    "license": "Proprietary - All Rights Reserved",
    "source": "",
    "era": [],
    "tags": [
     "ground"
    ],
    "worldScaleMetres": 3.5
   },
   "normalTexture": {
    "index": 1
   },
   "occlusionTexture": {
    "index": 2
   }
  },
  {
   "name": "kerb_stone",
   "pbrMetallicRoughness": {
    "baseColorFactor": [
     1,
     1,
     1,
     1.0
    ],
    "metallicFactor": 1.0,
    "roughnessFactor": 1.0,
    "baseColorTexture": {
     "index": 3
    },
    "metallicRoughnessTexture": {
     "index": 5
    }
   },
   "doubleSided": true,
   "extras": {
    "license": "Proprietary - All Rights Reserved",
    "source": "",
    "era": [],
    "tags": [
     "kerb"
    ],
    "worldScaleMetres": 2.0
   },
   "normalTexture": {
    "index": 4
   },
   "occlusionTexture": {
    "index": 5
   }
  },
  {
   "name": "granite_setts",
   "pbrMetallicRoughness": {
    "baseColorFactor": [
     1,
     1,
     1,
     1.0
    ],
    "metallicFactor": 1.0,
    "roughnessFactor": 1.0,
    "baseColorTexture": {
     "index": 6
    },
    "metallicRoughnessTexture": {
     "index": 8
    }
   },
   "doubleSided": true,
   "extras": {
    "license": "Proprietary - All Rights Reserved",
    "source": "",
    "era": [],
    "tags": [
     "road"
    ],
    "worldScaleMetres": 3.0
   },
   "normalTexture": {
    "index": 7
   },
   "occlusionTexture": {
    "index": 8
   }
  },
  {
   "name": "canal_water",
   "pbrMetallicRoughness": {
    "baseColorFactor": [
     1,
     1,
     1,
     1.0
    ],
    "metallicFactor": 1.0,
    "roughnessFactor": 1.0,
    "baseColorTexture": {
     "index": 9
    },
    "metallicRoughnessTexture": {
     "index": 11
    }
   },
   "doubleSided": true,
   "extras": {
    "license": "Proprietary - All Rights Reserved",
    "source": "",
    "era": [],
    "tags": [
     "water"
    ],
    "worldScaleMetres": 6.0
   },
   "normalTexture": {
    "index": 10
   },
   "occlusionTexture": {
    "index": 11
   }
  },
  {
   "name": "stock_brick",
   "pbrMetallicRoughness": {
    "baseColorFactor": [
     1,
     1,
     1,
     1.0
    ],
    "metallicFactor": 1.0,
    "roughnessFactor": 1.0,
    "baseColorTexture": {
     "index": 12
    },
    "metallicRoughnessTexture": {
     "index": 14
    }
   },
   "doubleSided": true,
   "extras": {
    "license": "Proprietary - All Rights Reserved",
    "source": "",
    "era": [
     "1850-1900"
    ],
    "tags": [
     "wall",
     "brick"
    ],
    "worldScaleMetres": 2.4
   },
   "normalTexture": {
    "index": 13
   },
   "occlusionTexture": {
    "index": 14
   }
  },
  {
   "name": "portland_stone",
   "pbrMetallicRoughness": {
    "baseColorFactor": [
     1,
     1,
     1,
     1.0
    ],
    "metallicFactor": 1.0,
    "roughnessFactor": 1.0,
    "baseColorTexture": {
     "index": 15
    },
    "metallicRoughnessTexture": {
     "index": 17
    }
   },
   "doubleSided": true,
   "extras": {
    "license": "Proprietary - All Rights Reserved",
    "source": "",
    "era": [],
    "tags": [
     "dressing",
     "corner"
    ],
    "worldScaleMetres": 2.0
   },
   "normalTexture": {
    "index": 16
   },
   "occlusionTexture": {
    "index": 17
   }
  },
  {
   "name": "stone_plinth",
   "pbrMetallicRoughness": {
    "baseColorFactor": [
     1,
     1,
     1,
     1.0
    ],
    "metallicFactor": 1.0,
    "roughnessFactor": 1.0,
    "baseColorTexture": {
     "index": 18
    },
    "metallicRoughnessTexture": {
     "index": 20
    }
   },
   "doubleSided": true,
   "extras": {
    "license": "Proprietary - All Rights Reserved",
    "source": "",
    "era": [],
    "tags": [
     "plinth"
    ],
    "worldScaleMetres": 1.6
   },
   "normalTexture": {
    "index": 19
   },
   "occlusionTexture": {
    "index": 20
   }
  },
  {
   "name": "brick_weathered",
   "pbrMetallicRoughness": {
    "baseColorFactor": [
     1,
     1,
     1,
     1.0
    ],
    "metallicFactor": 1.0,
    "roughnessFactor": 1.0,
    "baseColorTexture": {
     "index": 21
    },
    "metallicRoughnessTexture": {
     "index": 23
    }
   },
   "doubleSided": true,
   "extras": {
    "license": "Proprietary - All Rights Reserved",
    "source": "",
    "era": [],
    "tags": [
     "wall",
     "brick",
     "weathered"
    ],
    "worldScaleMetres": 2.4
   },
   "normalTexture": {
    "index": 22
   },
   "occlusionTexture": {
    "index": 23
   }
  },
  {
   "name": "lead_flat",
   "pbrMetallicRoughness": {
    "baseColorFactor": [
     1,
     1,
     1,
     1.0
    ],
    "metallicFactor": 1.0,
    "roughnessFactor": 1.0,
    "baseColorTexture": {
     "index": 24
    },
    "metallicRoughnessTexture": {
     "index": 26
    }
   },
   "doubleSided": true,
   "extras": {
    "license": "Proprietary - All Rights Reserved",
    "source": "",
    "era": [],
    "tags": [
     "roof",
     "lead"
    ],
    "worldScaleMetres": 2.4
   },
   "normalTexture": {
    "index": 25
   },
   "occlusionTexture": {
    "index": 26
   }
  },
  {
   "name": "clay_roof",
   "pbrMetallicRoughness": {
    "baseColorFactor": [
     1,
     1,
     1,
     1.0
    ],
    "metallicFactor": 1.0,
    "roughnessFactor": 1.0,
    "baseColorTexture": {
     "index": 27
    },
    "metallicRoughnessTexture": {
     "index": 29
    }
   },
   "doubleSided": true,
   "extras": {
    "license": "Proprietary - All Rights Reserved",
    "source": "",
    "era": [],
    "tags": [
     "roof"
    ],
    "worldScaleMetres": 1.8
   },
   "normalTexture": {
    "index": 28
   },
   "occlusionTexture": {
    "index": 29
   }
  }
 ],
 "samplers": [
  {
   "wrapS": 10497,
   "wrapT": 10497,
   "magFilter": 9729,
   "minFilter": 9987
  }
 ],
 "extras": {
  "theme": "victorian",
  "spatialIRSchema": "0.2.0",
  "sources": [
   {
    "id": "src0",
    "uri": "data/real/USGS_LPC_CO_DRCOG_2020_B20_w0499n4399.laz",
    "adapter": "las",
    "license": "unknown -- check the tile's provider",
    "attribution": "",
    "sensor": "airborne lidar",
    "acquired": "",
    "crs": "COMPD_CS[\"NAD83(2011) / UTM zone 13N + NAVD88 height - Geoid18 (metres)\",PROJCS[\"NAD83(2011) / UTM zone 13N\",GEOGCS[\"NAD83(2011)\",DATUM[\"NAD83 (National_Spatial_Reference_System_2011)\",SPHEROID[\"GRS 1980\",6378137,298.257222101,AUTHORITY[\"EPSG\",\"7019\"]],AUTHORITY[\"EPSG\",\"1116\"]],PRIMEM[\"Greenwich\",0,AUTHORITY[\"EPSG\",\"8901\"]],UNIT[\"Degree\",0.0174532925199433,AUTHORITY[\"EPSG\",\"9122\"]],AUTHORITY[\"EPSG\",\"6318\"]],PROJECTION[\"Transverse_Mercator\"],PARAMETER[\"Latitude_Of_Origin\",0],PARAMETER[\"Central_Meridian\",-105],PARAMETER[\"scale_factor\",0.9996],PARAMETER[\"False_Easting\",500000],PARAMETER[\"False_Northing\",0],UNIT[\"metre\",1,AUTHORITY[\"EPSG\",\"9001\"]],AXIS[\"X\",EAST],AXIS[\"Y\",NORTH],AUTHORITY[\"EPSG\",\"6342\"]],VERT_CS[\"NAVD88 height - Geoid18 (metres)\",VERT_DATUM[\"North American Vertical Datum 1988\",2005,AUTHORITY[\"EPSG\",\"5103\"]],UNIT[\"metre\",1,AUTHORITY[\"EPSG\",\"9001\"]],AXIS[\"Up\",UP],AUTHORITY[\"EPSG\",\"5703\"]]]",
    "point_count": 9706750,
    "sensor_origin": null,
    "notes": "LAS 1.4 pf6 via laspy; 33% of points carry a usable ASPRS class; cropped to (np.float64(500090.0), np.float64(4400090.0), np.float64(500410.0), np.float64(4400410.0)) (391,800 of 9,706,750 points)"
   }
  ],
  "note": "Materialised from a theme-independent Spatial IR; re-export with a different pack to re-skin."
 },
 "images": [
  {
   "uri": "tex/meadow_albedo.png"
  },
  {
   "uri": "tex/meadow_normal.png"
  },
  {
   "uri": "tex/meadow_orm.png"
  },
  {
   "uri": "tex/kerb_stone_albedo.png"
  },
  {
   "uri": "tex/kerb_stone_normal.png"
  },
  {
   "uri": "tex/kerb_stone_orm.png"
  },
  {
   "uri": "tex/granite_setts_albedo.png"
  },
  {
   "uri": "tex/granite_setts_normal.png"
  },
  {
   "uri": "tex/granite_setts_orm.png"
  },
  {
   "uri": "tex/canal_water_albedo.png"
  },
  {
   "uri": "tex/canal_water_normal.png"
  },
  {
   "uri": "tex/canal_water_orm.png"
  },
  {
   "uri": "tex/stock_brick_albedo.png"
  },
  {
   "uri": "tex/stock_brick_normal.png"
  },
  {
   "uri": "tex/stock_brick_orm.png"
  },
  {
   "uri": "tex/portland_stone_albedo.png"
  },
  {
   "uri": "tex/portland_stone_normal.png"
  },
  {
   "uri": "tex/portland_stone_orm.png"
  },
  {
   "uri": "tex/stone_plinth_albedo.png"
  },
  {
   "uri": "tex/stone_plinth_normal.png"
  },
  {
   "uri": "tex/stone_plinth_orm.png"
  },
  {
   "uri": "tex/brick_weathered_albedo.png"
  },
  {
   "uri": "tex/brick_weathered_normal.png"
  },
  {
   "uri": "tex/brick_weathered_orm.png"
  },
  {
   "uri": "tex/lead_flat_albedo.png"
  },
  {
   "uri": "tex/lead_flat_normal.png"
  },
  {
   "uri": "tex/lead_flat_orm.png"
  },
  {
   "uri": "tex/clay_roof_albedo.png"
  },
  {
   "uri": "tex/clay_roof_normal.png"
  },
  {
   "uri": "tex/clay_roof_orm.png"
  }
 ],
 "textures": [
  {
   "source": 0,
   "sampler": 0
  },
  {
   "source": 1,
   "sampler": 0
  },
  {
   "source": 2,
   "sampler": 0
  },
  {
   "source": 3,
   "sampler": 0
  },
  {
   "source": 4,
   "sampler": 0
  },
  {
   "source": 5,
   "sampler": 0
  },
  {
   "source": 6,
   "sampler": 0
  },
  {
   "source": 7,
   "sampler": 0
  },
  {
   "source": 8,
   "sampler": 0
  },
  {
   "source": 9,
   "sampler": 0
  },
  {
   "source": 10,
   "sampler": 0
  },
  {
   "source": 11,
   "sampler": 0
  },
  {
   "source": 12,
   "sampler": 0
  },
  {
   "source": 13,
   "sampler": 0
  },
  {
   "source": 14,
   "sampler": 0
  },
  {
   "source": 15,
   "sampler": 0
  },
  {
   "source": 16,
   "sampler": 0
  },
  {
   "source": 17,
   "sampler": 0
  },
  {
   "source": 18,
   "sampler": 0
  },
  {
   "source": 19,
   "sampler": 0
  },
  {
   "source": 20,
   "sampler": 0
  },
  {
   "source": 21,
   "sampler": 0
  },
  {
   "source": 22,
   "sampler": 0
  },
  {
   "source": 23,
   "sampler": 0
  },
  {
   "source": 24,
   "sampler": 0
  },
  {
   "source": 25,
   "sampler": 0
  },
  {
   "source": 26,
   "sampler": 0
  },
  {
   "source": 27,
   "sampler": 0
  },
  {
   "source": 28,
   "sampler": 0
  },
  {
   "source": 29,
   "sampler": 0
  }
 ]
}